<svg viewBox="0 0 512 512" xmlns="http://www.w3.org/2000/svg">
  <path fill="#DC244C" d="M448 80c0-8.8-7.2-16-16-16H80c-8.8 0-16 7.2-16 16v48c0 8.8 7.2 16 16 16h352c8.8 0 16-7.2 16-16V80zm0 112c0-8.8-7.2-16-16-16H80c-8.8 0-16 7.2-16 16v48c0 8.8 7.2 16 16 16h352c8.8 0 16-7.2 16-16v-48zm0 112c0-8.8-7.2-16-16-16H80c-8.8 0-16 7.2-16 16v48c0 8.8 7.2 16 16 16h352c8.8 0 16-7.2 16-16v-48zm0 112c0-8.8-7.2-16-16-16H80c-8.8 0-16 7.2-16 16v48c0 8.8 7.2 16 16 16h352c8.8 0 16-7.2 16-16v-48z"/>
  <circle cx="128" cy="104" r="12" fill="#FF3364"/>
  <circle cx="128" cy="216" r="12" fill="#FF3364"/>
  <circle cx="128" cy="328" r="12" fill="#FF3364"/>
  <circle cx="128" cy="440" r="12" fill="#FF3364"/>
</svg>